<?xml version="1.0" encoding="UTF-8"?>
<!DOCTYPE svg PUBLIC "-//W3C//DTD SVG 1.1//EN" "http://www.w3.org/Graphics/SVG/1.1/DTD/svg11.dtd">
<svg xmlns="http://www.w3.org/2000/svg" version="1.1" width="100px" height="100px" style="shape-rendering:geometricPrecision; text-rendering:geometricPrecision; image-rendering:optimizeQuality; fill-rule:evenodd; clip-rule:evenodd" xmlns:xlink="http://www.w3.org/1999/xlink">
<g><path style="opacity:0.971" fill="#67ff93" d="M 9.5,13.5 C 36.1687,13.3334 62.8354,13.5 89.5,14C 90,14.5 90.5,15 91,15.5C 91.4983,18.8168 91.665,22.1501 91.5,25.5C 63.5,25.5 35.5,25.5 7.5,25.5C 6.99048,21.1869 7.65715,17.1869 9.5,13.5 Z M 14.5,18.5 C 16.337,18.6395 16.6704,19.3061 15.5,20.5C 14.7025,20.0431 14.3691,19.3764 14.5,18.5 Z M 20.5,18.5 C 22.337,18.6395 22.6704,19.3061 21.5,20.5C 20.7025,20.0431 20.3691,19.3764 20.5,18.5 Z M 26.5,18.5 C 28.337,18.6395 28.6704,19.3061 27.5,20.5C 26.7025,20.0431 26.3691,19.3764 26.5,18.5 Z"/></g>
<g><path style="opacity:0.99" fill="#67fe93" d="M 7.5,29.5 C 35.5,29.5 63.5,29.5 91.5,29.5C 91.6666,47.5031 91.4999,65.5031 91,83.5C 90.5,84 90,84.5 89.5,85C 62.8333,85.6667 36.1667,85.6667 9.5,85C 9,84.5 8.5,84 8,83.5C 7.50006,65.5031 7.33339,47.5031 7.5,29.5 Z M 52.5,36.5 C 60.7464,36.3214 62.5798,39.6547 58,46.5C 57.84,53.5629 57.1733,60.5629 56,67.5C 52.9596,73.6026 48.1263,75.7693 41.5,74C 38.6667,72.5 36.5,70.3333 35,67.5C 33.6374,63.2388 33.3041,58.9054 34,54.5C 36.3504,56.6829 38.517,59.0163 40.5,61.5C 39.7261,62.7112 38.8928,62.7112 38,61.5C 36.4068,67.9976 38.9068,71.3309 45.5,71.5C 48.9714,71.8494 51.4714,70.516 53,67.5C 53.6667,60.5 53.6667,53.5 53,46.5C 49.8563,43.3081 49.6896,39.9748 52.5,36.5 Z"/></g>
</svg>
