<?xml version="1.0" encoding="UTF-8"?>
<!DOCTYPE svg PUBLIC "-//W3C//DTD SVG 1.1//EN" "http://www.w3.org/Graphics/SVG/1.1/DTD/svg11.dtd">
<svg xmlns="http://www.w3.org/2000/svg" version="1.1" width="64px" height="64px" style="shape-rendering:geometricPrecision; text-rendering:geometricPrecision; image-rendering:optimizeQuality; fill-rule:evenodd; clip-rule:evenodd" xmlns:xlink="http://www.w3.org/1999/xlink">
<g><path style="opacity:0.848" fill="#67fe95" d="M 63.5,29.5 C 63.5,31.5 63.5,33.5 63.5,35.5C 57.8765,44.4372 50.7099,45.7705 42,39.5C 39.9937,36.4642 39.1604,33.1309 39.5,29.5C 45.5368,29.8293 51.5368,29.4959 57.5,28.5C 55.754,24.6733 53.754,21.0066 51.5,17.5C 49.9138,19.6705 48.5804,22.0038 47.5,24.5C 46.3112,25.4287 44.9778,25.762 43.5,25.5C 43.9675,21.5561 45.3008,17.8895 47.5,14.5C 42.8804,13.5067 38.2137,13.1734 33.5,13.5C 33.5947,26.8949 35.2614,40.0615 38.5,53C 37.1256,55.8991 35.6256,56.0658 34,53.5C 33.1376,47.3034 31.9709,41.3034 30.5,35.5C 29.7516,28.1912 29.4183,20.8578 29.5,13.5C 24.7863,13.1734 20.1196,13.5067 15.5,14.5C 18.7274,20.285 21.3941,26.285 23.5,32.5C 21.7169,41.2335 16.3836,44.7335 7.5,43C 3.64987,41.6468 0.983199,39.1468 -0.5,35.5C -0.5,33.5 -0.5,31.5 -0.5,29.5C 5.53675,29.8293 11.5368,29.4959 17.5,28.5C 15.754,24.6733 13.754,21.0066 11.5,17.5C 9.91378,19.6705 8.58044,22.0038 7.5,24.5C 6.31116,25.4287 4.97782,25.762 3.5,25.5C 4.59792,19.8021 6.93125,14.6354 10.5,10C 16.8246,9.50046 23.1579,9.33379 29.5,9.5C 29.5,8.5 29.5,7.5 29.5,6.5C 30.8333,6.5 32.1667,6.5 33.5,6.5C 33.5,7.5 33.5,8.5 33.5,9.5C 39.8421,9.33379 46.1754,9.50046 52.5,10C 56.3207,16.4814 59.9874,22.9814 63.5,29.5 Z"/></g>
<g><path style="opacity:0.779" fill="#67fe94" d="M 30.5,35.5 C 30.1841,40.8444 29.6841,46.1778 29,51.5C 27.9258,56.1541 26.4258,56.4875 24.5,52.5C 25.5776,46.879 26.2443,41.2123 26.5,35.5C 27.8333,35.5 29.1667,35.5 30.5,35.5 Z"/></g>
<g><path style="opacity:0.738" fill="#68fe93" d="M 53.5,63.5 C 38.8333,63.5 24.1667,63.5 9.5,63.5C 9.5,62.1667 9.5,60.8333 9.5,59.5C 24.1667,59.5 38.8333,59.5 53.5,59.5C 53.5,60.8333 53.5,62.1667 53.5,63.5 Z"/></g>
</svg>
