<?xml version="1.0" encoding="UTF-8"?>
<!DOCTYPE svg PUBLIC "-//W3C//DTD SVG 1.1//EN" "http://www.w3.org/Graphics/SVG/1.1/DTD/svg11.dtd">
<svg xmlns="http://www.w3.org/2000/svg" version="1.1" width="1280px" height="1280px" style="shape-rendering:geometricPrecision; text-rendering:geometricPrecision; image-rendering:optimizeQuality; fill-rule:evenodd; clip-rule:evenodd" xmlns:xlink="http://www.w3.org/1999/xlink">
<g><path style="opacity:0.971" fill="#67ff93" d="M 698.5,913.5 C 697.883,913.389 697.383,913.056 697,912.5C 696.51,913.793 696.343,915.127 696.5,916.5C 695.167,916.5 693.833,916.5 692.5,916.5C 692.5,917.833 692.5,919.167 692.5,920.5C 691.5,920.5 690.5,920.5 689.5,920.5C 689.5,923.833 688.167,926.5 685.5,928.5C 684.147,931.511 682.814,934.511 681.5,937.5C 680.167,940.167 678.833,942.833 677.5,945.5C 676.448,945.351 675.448,945.517 674.5,946C 672.69,948.519 671.023,951.019 669.5,953.5C 668.167,953.5 666.833,953.5 665.5,953.5C 665.649,954.552 665.483,955.552 665,956.5C 662.87,957.141 661.37,958.474 660.5,960.5C 657.427,962.9 654.094,964.9 650.5,966.5C 649.625,968.773 647.958,969.773 645.5,969.5C 645.67,970.822 645.337,971.989 644.5,973C 642.423,973.192 640.423,973.692 638.5,974.5C 636.035,976.531 633.701,978.698 631.5,981C 628.432,980.952 626.098,982.119 624.5,984.5C 620.836,984.887 617.836,986.387 615.5,989C 612.5,989.333 609.5,989.667 606.5,990C 605.663,991.011 605.33,992.178 605.5,993.5C 597.622,995.913 589.289,997.413 580.5,998C 579.5,999 578.5,1000 577.5,1001C 552.5,1001.67 527.5,1001.67 502.5,1001C 501.5,1000 500.5,999 499.5,998C 495.167,997.667 490.833,997.333 486.5,997C 485.663,995.989 485.33,994.822 485.5,993.5C 481.774,993.823 478.107,993.489 474.5,992.5C 474.167,991.833 473.833,991.167 473.5,990.5C 470.167,989.833 466.833,989.167 463.5,988.5C 463.167,987.833 462.833,987.167 462.5,986.5C 460.167,985.833 457.833,985.167 455.5,984.5C 453.902,982.119 451.568,980.952 448.5,981C 447.187,978.674 445.187,977.341 442.5,977C 441.663,975.989 441.33,974.822 441.5,973.5C 437.831,974.303 435.164,973.136 433.5,970C 430.553,969.888 429.22,968.388 429.5,965.5C 426.327,963.875 422.994,962.375 419.5,961C 418.663,959.989 418.33,958.822 418.5,957.5C 417.448,957.649 416.448,957.483 415.5,957C 412.665,954.214 409.665,951.547 406.5,949C 405.663,947.989 405.33,946.822 405.5,945.5C 404.5,945.5 403.5,945.5 402.5,945.5C 402.649,944.448 402.483,943.448 402,942.5C 397.599,938.105 393.599,933.438 390,928.5C 389.517,927.552 389.351,926.552 389.5,925.5C 388.325,925.719 387.325,925.386 386.5,924.5C 385.959,922.465 385.292,920.465 384.5,918.5C 382.418,916.399 380.584,914.065 379,911.5C 375.464,905.762 372.464,899.762 370,893.5C 369.667,891.167 369.333,888.833 369,886.5C 368,885.833 367,885.167 366,884.5C 365.667,881.5 365.333,878.5 365,875.5C 364,874.5 363,873.5 362,872.5C 361.501,868.514 361.334,864.514 361.5,860.5C 361.5,858.833 361.5,857.167 361.5,855.5C 360.041,855.567 358.708,855.234 357.5,854.5C 357.333,830.831 357.5,807.164 358,783.5C 360.861,778.273 362.195,772.606 362,766.5C 363,765.833 364,765.167 365,764.5C 365.333,761.5 365.667,758.5 366,755.5C 368.834,752.891 370.167,749.558 370,745.5C 374.305,738.006 378.305,730.34 382,722.5C 383.011,721.663 384.178,721.33 385.5,721.5C 385.409,716.854 387.076,713.02 390.5,710C 391.448,709.517 392.448,709.351 393.5,709.5C 393.351,708.448 393.517,707.448 394,706.5C 400.324,697.589 407.49,689.423 415.5,682C 416.448,681.517 417.448,681.351 418.5,681.5C 418.281,680.325 418.614,679.325 419.5,678.5C 422.123,677.808 424.123,676.308 425.5,674C 426.793,673.51 428.127,673.343 429.5,673.5C 429.22,670.612 430.553,669.112 433.5,669C 435.164,665.864 437.831,664.697 441.5,665.5C 441.33,664.178 441.663,663.011 442.5,662C 445.321,661.426 447.654,660.092 449.5,658C 451.134,657.506 452.801,657.34 454.5,657.5C 454.281,656.325 454.614,655.325 455.5,654.5C 459.379,654.047 462.712,652.547 465.5,650C 469.558,650.167 472.891,648.834 475.5,646C 478.5,645.667 481.5,645.333 484.5,645C 485.167,643.667 486.167,642.667 487.5,642C 491.5,641.667 495.5,641.333 499.5,641C 500.5,640 501.5,639 502.5,638C 527.5,637.333 552.5,637.333 577.5,638C 578.5,639 579.5,640 580.5,641C 584.833,641.333 589.167,641.667 593.5,642C 596.447,645.014 600.113,646.348 604.5,646C 605.167,647 605.833,648 606.5,649C 609.167,649.333 611.833,649.667 614.5,650C 615.833,650.667 616.833,651.667 617.5,653C 619.5,653.333 621.5,653.667 623.5,654C 626.594,656.619 629.927,658.952 633.5,661C 634.793,661.49 636.127,661.657 637.5,661.5C 637.5,533.5 637.5,405.5 637.5,277.5C 642.844,277.334 648.177,277.501 653.5,278C 655.286,278.196 656.619,279.029 657.5,280.5C 661.459,281.327 665.459,281.827 669.5,282C 670.5,282.833 671.5,283.667 672.5,284.5C 676.459,285.327 680.459,285.827 684.5,286C 685.357,286.689 686.023,287.522 686.5,288.5C 690.796,289.328 695.129,289.828 699.5,290C 700.973,290.71 701.64,291.876 701.5,293.5C 705.514,293.334 709.514,293.501 713.5,294C 715.286,294.196 716.619,295.029 717.5,296.5C 721.459,297.327 725.459,297.827 729.5,298C 730.5,298.833 731.5,299.667 732.5,300.5C 736.459,301.327 740.459,301.827 744.5,302C 745.357,302.689 746.023,303.522 746.5,304.5C 750.796,305.328 755.129,305.828 759.5,306C 760.973,306.71 761.64,307.876 761.5,309.5C 765.514,309.334 769.514,309.501 773.5,310C 775.286,310.196 776.619,311.029 777.5,312.5C 781.459,313.327 785.459,313.827 789.5,314C 790.833,315 792.167,316 793.5,317C 797.167,317.333 800.833,317.667 804.5,318C 805.357,318.689 806.023,319.522 806.5,320.5C 811.132,321.328 815.798,321.828 820.5,322C 821.337,323.011 821.67,324.178 821.5,325.5C 825.846,325.334 830.179,325.501 834.5,326C 838.924,328.918 843.924,330.251 849.5,330C 853.915,333.057 858.915,334.391 864.5,334C 865.357,334.689 866.023,335.522 866.5,336.5C 870.796,337.328 875.129,337.828 879.5,338C 880.973,338.71 881.64,339.876 881.5,341.5C 885.514,341.334 889.514,341.501 893.5,342C 895.286,342.196 896.619,343.029 897.5,344.5C 901.459,345.327 905.459,345.827 909.5,346C 910.5,346.833 911.5,347.667 912.5,348.5C 916.459,349.327 920.459,349.827 924.5,350C 925.357,350.689 926.023,351.522 926.5,352.5C 930.796,353.328 935.129,353.828 939.5,354C 940.428,354.388 941.095,355.055 941.5,356C 942.829,404.709 942.829,453.375 941.5,502C 936.5,502.667 931.5,502.667 926.5,502C 924.714,501.804 923.381,500.971 922.5,499.5C 918.878,498.675 915.211,498.175 911.5,498C 910.167,497.333 909.167,496.333 908.5,495C 904.5,494.667 900.5,494.333 896.5,494C 895.167,493.333 894.167,492.333 893.5,491C 889.833,490.667 886.167,490.333 882.5,490C 877.948,487.228 872.948,485.895 867.5,486C 866.167,485.333 865.167,484.333 864.5,483C 860.5,482.667 856.5,482.333 852.5,482C 851.167,481.333 850.167,480.333 849.5,479C 845.833,478.667 842.167,478.333 838.5,478C 834.085,474.943 829.085,473.609 823.5,474C 822.167,473.333 821.167,472.333 820.5,471C 816.5,470.667 812.5,470.333 808.5,470C 807.167,469.333 806.167,468.333 805.5,467C 801.833,466.667 798.167,466.333 794.5,466C 789.948,463.228 784.948,461.895 779.5,462C 778.167,461.333 777.167,460.333 776.5,459C 772.5,458.667 768.5,458.333 764.5,458C 763.09,457.632 762.09,456.799 761.5,455.5C 752.716,453.924 744.05,452.091 735.5,450C 734.167,449.333 733.167,448.333 732.5,447C 729.183,446.502 725.85,446.335 722.5,446.5C 722.667,582.5 722.5,718.5 722,854.5C 719.165,859.924 717.665,865.757 717.5,872C 716.991,873.169 716.158,874.002 715,874.5C 714.58,878.191 714.08,881.858 713.5,885.5C 712.5,885.5 711.5,885.5 710.5,885.5C 710.699,888.941 710.199,892.274 709,895.5C 706.667,900.167 704.333,904.833 702,909.5C 700.968,911.027 699.801,912.36 698.5,913.5 Z"/></g>
<g><path style="opacity:0.059" fill="#3cff5a" d="M 357.5,854.5 C 358.708,855.234 360.041,855.567 361.5,855.5C 361.5,857.167 361.5,858.833 361.5,860.5C 359.204,859.267 357.87,857.267 357.5,854.5 Z"/></g>
<g><path style="opacity:0.077" fill="#56ff7c" d="M 698.5,913.5 C 695.684,916.536 693.851,920.203 693,924.5C 688.699,928.449 684.865,932.782 681.5,937.5C 682.814,934.511 684.147,931.511 685.5,928.5C 688.167,926.5 689.5,923.833 689.5,920.5C 690.5,920.5 691.5,920.5 692.5,920.5C 692.5,919.167 692.5,917.833 692.5,916.5C 693.833,916.5 695.167,916.5 696.5,916.5C 696.343,915.127 696.51,913.793 697,912.5C 697.383,913.056 697.883,913.389 698.5,913.5 Z"/></g>
</svg>
