<?xml version="1.0" encoding="UTF-8"?>
<!DOCTYPE svg PUBLIC "-//W3C//DTD SVG 1.1//EN" "http://www.w3.org/Graphics/SVG/1.1/DTD/svg11.dtd">
<svg xmlns="http://www.w3.org/2000/svg" version="1.1" width="1280px" height="1280px" style="shape-rendering:geometricPrecision; text-rendering:geometricPrecision; image-rendering:optimizeQuality; fill-rule:evenodd; clip-rule:evenodd" xmlns:xlink="http://www.w3.org/1999/xlink">
<g><path style="opacity:0.149" fill="#56ff89" d="M 689.5,364.5 C 693.021,365.166 696.687,365.833 700.5,366.5C 701.381,367.971 702.714,368.804 704.5,369C 705.053,370.878 706.053,372.378 707.5,373.5C 707.5,375.5 707.5,377.5 707.5,379.5C 704.537,377.208 702.37,374.208 701,370.5C 700.667,370.833 700.333,371.167 700,371.5C 699.667,370.5 699.333,369.5 699,368.5C 697.667,368.5 696.333,368.5 695,368.5C 694.692,367.692 694.192,367.025 693.5,366.5C 692.167,366.833 690.833,367.167 689.5,367.5C 654.833,366.833 620.167,366.167 585.5,365.5C 582.406,365.863 579.406,367.197 576.5,369.5C 576.339,374.777 575.839,379.777 575,384.5C 577.737,386.452 579.904,388.952 581.5,392C 580.269,393.183 580.269,394.349 581.5,395.5C 587.298,396.126 592.964,396.793 598.5,397.5C 590.515,397.956 582.681,397.29 575,395.5C 573.891,390.944 573.391,386.278 573.5,381.5C 573.667,377.5 573.833,373.5 574,369.5C 574.309,368.234 574.809,367.067 575.5,366C 613.452,364.525 651.452,364.025 689.5,364.5 Z"/></g>
<g><path style="opacity:0.916" fill="#66ff92" d="M 957.5,393.5 C 953.633,394.819 949.299,395.819 944.5,396.5C 942.307,396.864 940.473,397.864 939,399.5C 935.233,397.642 931.733,398.476 928.5,402C 925.964,402.186 923.631,402.686 921.5,403.5C 919.153,404.684 917.153,406.351 915.5,408.5C 914.264,409.246 912.93,409.579 911.5,409.5C 910.399,408.402 909.066,408.235 907.5,409C 905.605,412.611 903.105,415.778 900,418.5C 899.517,419.448 899.351,420.448 899.5,421.5C 896.447,422.713 894.113,424.88 892.5,428C 892.833,428.333 893.167,428.667 893.5,429C 891.668,429.748 890.001,430.748 888.5,432C 888.833,432.333 889.167,432.667 889.5,433C 886.407,436.307 887.074,438.141 891.5,438.5C 891.533,442.869 891.2,447.202 890.5,451.5C 889.292,452.234 887.959,452.567 886.5,452.5C 886.688,454.103 886.188,455.437 885,456.5C 884.169,497.335 884.335,538.002 885.5,578.5C 885.5,581.167 885.5,583.833 885.5,586.5C 884.671,593.321 884.171,600.321 884,607.5C 883.667,606.833 883.333,606.167 883,605.5C 882.627,607.698 882.127,609.865 881.5,612C 882.615,613.235 882.615,614.402 881.5,615.5C 882.025,616.192 882.692,616.692 883.5,617C 881.884,617.615 880.551,618.615 879.5,620C 879.652,622.961 880.318,625.295 881.5,627C 880.584,627.374 879.75,627.874 879,628.5C 878.697,630.888 877.863,633.055 876.5,635C 878.242,642.099 877.242,648.433 873.5,654C 874.5,655 875.5,656 876.5,657C 874.24,658.335 872.073,659.835 870,661.5C 869.749,663.433 869.249,665.266 868.5,667C 869.345,668.558 868.679,669.558 866.5,670C 866.833,670.333 867.167,670.667 867.5,671C 864.745,673.838 862.745,677.171 861.5,681C 862.646,683.557 861.646,684.89 858.5,685C 859.167,685.333 859.833,685.667 860.5,686C 858.194,687.916 856.861,690.416 856.5,693.5C 857.167,694.167 857.833,694.833 858.5,695.5C 857.137,696.893 856.304,698.559 856,700.5C 854.989,699.663 853.822,699.33 852.5,699.5C 852.762,700.978 852.429,702.311 851.5,703.5C 850.914,703.291 850.414,702.957 850,702.5C 849.065,705.102 847.232,706.602 844.5,707C 844.779,709.246 845.113,711.746 845.5,714.5C 844.5,714.5 843.5,714.5 842.5,714.5C 842.513,719.096 840.346,720.763 836,719.5C 834.086,720.676 834.252,721.676 836.5,722.5C 835.807,724.711 834.641,725.045 833,723.5C 830.916,724.769 828.749,725.769 826.5,726.5C 826.67,729.491 825.337,731.491 822.5,732.5C 823.629,734.529 823.129,734.863 821,733.5C 819.693,734.772 818.193,735.772 816.5,736.5C 817.704,739.502 816.537,741.168 813,741.5C 812.228,741.355 811.561,741.022 811,740.5C 810.082,742.632 808.749,743.299 807,742.5C 805.111,744.483 803.778,746.816 803,749.5C 797.267,750.421 793.6,753.088 792,757.5C 790.551,756.386 789.217,755.386 788,754.5C 786.331,756.169 785.498,758.169 785.5,760.5C 785.167,760.5 784.833,760.5 784.5,760.5C 784.631,759.624 784.298,758.957 783.5,758.5C 782.667,759.5 781.833,760.5 781,761.5C 780.667,761.167 780.333,760.833 780,760.5C 778.333,763.167 776.667,763.167 775,760.5C 772.91,761.794 770.91,762.794 769,763.5C 767.846,761.043 766.512,761.043 765,763.5C 764.195,761.099 763.362,761.266 762.5,764C 759.962,765.631 757.295,766.964 754.5,768C 755.833,768.333 757.167,768.667 758.5,769C 757.619,769.708 756.953,770.542 756.5,771.5C 752.445,771.176 748.445,771.509 744.5,772.5C 743.438,775.203 741.438,776.703 738.5,777C 725.924,777.821 713.424,777.655 701,776.5C 699.869,762.719 699.369,748.886 699.5,735C 699.396,720.133 699.896,705.3 701,690.5C 702.491,688.996 704.324,688.163 706.5,688C 715.16,687.5 723.827,687.334 732.5,687.5C 732.56,688.043 732.893,688.376 733.5,688.5C 735.149,687.352 736.649,686.019 738,684.5C 738.333,684.833 738.667,685.167 739,685.5C 739.833,684.5 740.667,683.5 741.5,682.5C 743.031,683.421 744.365,683.088 745.5,681.5C 747.5,681.5 749.5,681.5 751.5,681.5C 751.383,679.516 752.05,677.85 753.5,676.5C 756.777,675.746 760.11,675.246 763.5,675C 764.167,673.333 764.833,671.667 765.5,670C 767.518,669.495 769.518,668.995 771.5,668.5C 772.862,666.38 775.196,664.714 778.5,663.5C 778.435,663.938 778.601,664.272 779,664.5C 780,663.833 781,663.167 782,662.5C 783.049,663.517 784.216,663.684 785.5,663C 787.305,660.656 788.638,657.822 789.5,654.5C 788.975,653.808 788.308,653.308 787.5,653C 788.662,652.173 789.829,651.34 791,650.5C 792.465,651.33 793.965,651.496 795.5,651C 794.325,648.162 794.491,645.329 796,642.5C 796.333,642.833 796.667,643.167 797,643.5C 797.133,638.386 799.466,635.72 804,635.5C 804.318,631.805 804.818,628.138 805.5,624.5C 805.818,623.353 806.484,622.519 807.5,622C 807.043,621.586 806.709,621.086 806.5,620.5C 808.47,617.111 810.137,613.611 811.5,610C 811.5,608 811.5,606 811.5,604C 809.69,601.352 809.69,599.019 811.5,597C 811.333,596.5 811.167,596 811,595.5C 810.333,596.833 809.667,596.833 809,595.5C 808.502,592.518 808.335,589.518 808.5,586.5C 808.5,580.5 808.5,574.5 808.5,568.5C 809.653,564.798 810.653,560.965 811.5,557C 810.209,554.91 810.876,553.576 813.5,553C 813.384,551.732 813.051,550.398 812.5,549C 814.192,547.599 814.859,545.766 814.5,543.5C 814.5,532.5 814.5,521.5 814.5,510.5C 816.844,505.774 817.511,500.774 816.5,495.5C 819.074,493.307 818.741,491.473 815.5,490C 817.785,486.84 820.118,483.673 822.5,480.5C 820.009,479.459 820.009,478.626 822.5,478C 822.167,477.667 821.833,477.333 821.5,477C 822.167,472.667 822.833,468.333 823.5,464C 822.833,462.667 822.167,461.333 821.5,460C 822.833,457.667 822.833,455.333 821.5,453C 822.966,452.365 824.3,451.531 825.5,450.5C 826.192,451.025 826.692,451.692 827,452.5C 829.15,445.186 829.65,437.853 828.5,430.5C 832.648,430.166 834.315,427.833 833.5,423.5C 833.5,421.833 833.5,420.167 833.5,418.5C 836.582,417.983 839.582,417.15 842.5,416C 841.577,413.959 841.244,411.792 841.5,409.5C 843.39,409.703 844.89,409.037 846,407.5C 846.485,403.514 848.152,400.181 851,397.5C 851.718,398.451 852.551,398.617 853.5,398C 856.2,396.143 857.866,393.643 858.5,390.5C 858.704,385.44 861.371,383.107 866.5,383.5C 867.261,384.391 868.261,385.058 869.5,385.5C 871.056,384.453 872.723,383.786 874.5,383.5C 874.92,379.442 877.253,377.442 881.5,377.5C 881.291,376.914 880.957,376.414 880.5,376C 882.684,374.637 884.684,373.137 886.5,371.5C 889.85,371.665 893.183,371.498 896.5,371C 897.605,366.294 900.605,364.294 905.5,365C 922.865,364.208 940.198,364.375 957.5,365.5C 957.5,374.833 957.5,384.167 957.5,393.5 Z"/></g>
<g><path style="opacity:0.916" fill="#66ff92" d="M 408.5,378.5 C 408.383,380.484 409.05,382.15 410.5,383.5C 412.614,384.034 414.448,385.034 416,386.5C 417.356,385.62 418.856,385.286 420.5,385.5C 421.451,386.919 421.784,388.585 421.5,390.5C 426.294,389.627 428.627,391.627 428.5,396.5C 433.373,396.373 435.373,398.706 434.5,403.5C 439.815,403.497 441.815,406.164 440.5,411.5C 439.387,412.946 439.22,414.613 440,416.5C 441.533,416.944 443.033,417.277 444.5,417.5C 446.457,421.456 447.29,425.456 447,429.5C 448,429.833 449,430.167 450,430.5C 449.992,434.237 450.992,437.903 453,441.5C 454.333,442.167 455.667,442.833 457,443.5C 457.333,446.167 457.667,448.833 458,451.5C 458.417,452.756 459.25,453.423 460.5,453.5C 460.334,457.846 460.501,462.179 461,466.5C 464.667,467.821 466.334,470.487 466,474.5C 465.857,498.726 466.691,522.726 468.5,546.5C 465.957,548.682 465.957,550.848 468.5,553C 467.833,553.333 467.167,553.667 466.5,554C 470.952,554.593 471.619,556.427 468.5,559.5C 467.748,561.1 466.748,562.6 465.5,564C 467.371,566.039 469.038,567.539 470.5,568.5C 469.167,569.5 467.833,570.5 466.5,571.5C 467.167,571.833 467.833,572.167 468.5,572.5C 465.31,575.819 465.977,577.985 470.5,579C 469.692,579.308 469.025,579.808 468.5,580.5C 469.265,582.295 469.932,584.128 470.5,586C 469.313,588.823 468.647,591.49 468.5,594C 469.376,595.586 470.376,597.086 471.5,598.5C 470.833,598.833 470.167,599.167 469.5,599.5C 470.127,602.702 470.794,605.869 471.5,609C 470.833,609.333 470.167,609.667 469.5,610C 469.057,611.518 469.724,612.685 471.5,613.5C 471.291,614.086 470.957,614.586 470.5,615C 471.859,617.545 473.359,620.045 475,622.5C 475.333,622.167 475.667,621.833 476,621.5C 476.251,623.433 476.751,625.266 477.5,627C 475.099,627.805 475.266,628.638 478,629.5C 478.651,631.235 478.485,632.902 477.5,634.5C 479.48,637.932 480.98,641.598 482,645.5C 484.052,646.723 486.219,647.723 488.5,648.5C 487.494,649.396 487.494,650.062 488.5,650.5C 489.192,649.975 489.692,649.308 490,648.5C 490.311,650.556 490.811,652.556 491.5,654.5C 495.026,656.526 497.693,659.359 499.5,663C 500.793,663.49 502.127,663.657 503.5,663.5C 504.167,663.5 504.833,663.5 505.5,663.5C 506.341,665.379 506.675,667.379 506.5,669.5C 507.93,669.421 509.264,669.754 510.5,670.5C 511.8,673.295 513.3,675.961 515,678.5C 518.651,677.263 521.151,678.596 522.5,682.5C 524.386,683.406 526.22,684.406 528,685.5C 528.489,683.396 529.655,683.062 531.5,684.5C 533.902,682.951 536.568,682.284 539.5,682.5C 539.34,684.199 539.506,685.866 540,687.5C 540.333,687.167 540.667,686.833 541,686.5C 543.042,690.134 545.542,690.468 548.5,687.5C 554.5,687.5 560.5,687.5 566.5,687.5C 568.684,688.266 571.018,688.933 573.5,689.5C 574.107,689.376 574.44,689.043 574.5,688.5C 577.238,687.965 579.072,688.965 580,691.5C 580.667,719.833 580.667,748.167 580,776.5C 567.576,777.655 555.076,777.821 542.5,777C 539.216,777.184 537.216,775.684 536.5,772.5C 531.544,771.506 526.544,771.173 521.5,771.5C 521.199,768.683 519.866,768.016 517.5,769.5C 515.65,767.482 513.65,765.649 511.5,764C 506.007,763.427 500.673,762.261 495.5,760.5C 492.385,758.952 489.051,757.952 485.5,757.5C 485.817,753.828 484.151,752.162 480.5,752.5C 475.549,753.371 472.882,751.371 472.5,746.5C 468.029,743.254 463.363,740.087 458.5,737C 455.894,730.647 451.727,725.481 446,721.5C 445.667,721.833 445.333,722.167 445,722.5C 443.667,720.5 442.333,718.5 441,716.5C 440.692,717.308 440.192,717.975 439.5,718.5C 437.307,714.769 435.14,711.103 433,707.5C 431.657,708.214 430.324,707.88 429,706.5C 428.04,704.621 427.54,702.621 427.5,700.5C 426.808,701.025 426.308,701.692 426,702.5C 425.329,701.748 424.496,701.414 423.5,701.5C 423.167,700.833 422.833,700.167 422.5,699.5C 422.673,693.363 420.34,688.363 415.5,684.5C 416.393,681.916 416.726,679.249 416.5,676.5C 414.876,676.64 413.71,675.973 413,674.5C 412.667,675.5 412.333,676.5 412,677.5C 411.303,675.416 410.136,673.749 408.5,672.5C 408.799,670.396 408.466,668.396 407.5,666.5C 405.412,664.572 403.912,662.239 403,659.5C 402.693,654.118 402.026,648.785 401,643.5C 398.56,642.726 397.227,641.06 397,638.5C 396.667,635.167 396.333,631.833 396,628.5C 395.5,577.501 395.333,526.501 395.5,475.5C 396.185,469.433 396.851,463.266 397.5,457C 394.057,456.779 393.724,455.779 396.5,454C 394.622,452.457 393.122,450.624 392,448.5C 392.07,445.008 391.237,442.008 389.5,439.5C 389.5,438.167 389.5,436.833 389.5,435.5C 391.06,433.871 390.727,432.704 388.5,432C 392.553,429.105 391.886,427.605 386.5,427.5C 387.18,422.003 384.846,418.836 379.5,418C 380.833,417 380.833,416 379.5,415C 380.167,414.333 380.833,413.667 381.5,413C 380.151,412.228 379.318,411.061 379,409.5C 377.32,410.603 375.82,410.27 374.5,408.5C 373.859,409.993 372.859,410.993 371.5,411.5C 367.485,409.675 363.818,407.175 360.5,404C 359.207,403.51 357.873,403.343 356.5,403.5C 351.801,401.766 346.968,400.099 342,398.5C 341,399.167 340,399.833 339,400.5C 338.544,399.256 339.044,398.423 340.5,398C 336.27,396.71 331.936,396.21 327.5,396.5C 325.833,396.5 324.167,396.5 322.5,396.5C 322.5,386.167 322.5,375.833 322.5,365.5C 342.17,364.054 361.837,364.221 381.5,366C 383.155,367.444 383.822,369.278 383.5,371.5C 388.179,371.334 392.845,371.501 397.5,372C 399.965,372.632 401.631,374.132 402.5,376.5C 404.631,377.169 406.631,377.835 408.5,378.5 Z"/></g>
<g><path style="opacity:0.922" fill="#67fe93" d="M 707.5,379.5 C 707.5,380.833 707.5,382.167 707.5,383.5C 706.482,388.033 704.149,391.866 700.5,395C 694.252,395.188 688.085,395.688 682,396.5C 681.167,571.667 681.334,746.667 682.5,921.5C 690.092,922.066 697.759,922.9 705.5,924C 707.153,929.338 707.82,934.838 707.5,940.5C 706.504,940.414 705.671,940.748 705,941.5C 704,944.833 703,948.167 702,951.5C 700.188,952.977 698.355,954.31 696.5,955.5C 656.132,955.965 615.799,955.465 575.5,954C 573.966,948.83 573.3,943.497 573.5,938C 573.393,933.388 573.893,928.888 575,924.5C 575.5,924 576,923.5 576.5,923C 583.826,922.5 591.159,922.334 598.5,922.5C 598.5,747.5 598.5,572.5 598.5,397.5C 592.964,396.793 587.298,396.126 581.5,395.5C 580.269,394.349 580.269,393.183 581.5,392C 579.904,388.952 577.737,386.452 575,384.5C 575.839,379.777 576.339,374.777 576.5,369.5C 579.406,367.197 582.406,365.863 585.5,365.5C 620.167,366.167 654.833,366.833 689.5,367.5C 690.833,367.167 692.167,366.833 693.5,366.5C 694.192,367.025 694.692,367.692 695,368.5C 696.333,368.5 697.667,368.5 699,368.5C 699.333,369.5 699.667,370.5 700,371.5C 700.333,371.167 700.667,370.833 701,370.5C 702.37,374.208 704.537,377.208 707.5,379.5 Z"/></g>
<g><path style="opacity:0.051" fill="#3cff62" d="M 689.5,364.5 C 694.913,364.229 700.246,364.729 705.5,366C 706.355,368.436 707.021,370.936 707.5,373.5C 706.053,372.378 705.053,370.878 704.5,369C 702.714,368.804 701.381,367.971 700.5,366.5C 696.687,365.833 693.021,365.166 689.5,364.5 Z"/></g>
<g><path style="opacity:0.024" fill="#2bff4f" d="M 408.5,378.5 C 411.844,379.007 414.178,380.841 415.5,384C 417.382,384.198 419.048,384.698 420.5,385.5C 418.856,385.286 417.356,385.62 416,386.5C 414.448,385.034 412.614,384.034 410.5,383.5C 409.05,382.15 408.383,380.484 408.5,378.5 Z"/></g>
<g><path style="opacity:0.178" fill="#49ff6d" d="M 886.5,371.5 C 884.684,373.137 882.684,374.637 880.5,376C 880.957,376.414 881.291,376.914 881.5,377.5C 877.253,377.442 874.92,379.442 874.5,383.5C 872.723,383.786 871.056,384.453 869.5,385.5C 868.261,385.058 867.261,384.391 866.5,383.5C 866.511,381.983 867.177,380.816 868.5,380C 871.536,377.994 874.869,377.16 878.5,377.5C 879.249,373.211 881.916,371.211 886.5,371.5 Z"/></g>
<g><path style="opacity:0.114" fill="#3aff52" d="M 707.5,383.5 C 707.621,387.825 706.954,391.991 705.5,396C 697.887,397.262 690.22,397.762 682.5,397.5C 682.5,572.167 682.5,746.833 682.5,921.5C 681.334,746.667 681.167,571.667 682,396.5C 688.085,395.688 694.252,395.188 700.5,395C 704.149,391.866 706.482,388.033 707.5,383.5 Z"/></g>
<g><path style="opacity:0.051" fill="#40ff65" d="M 327.5,396.5 C 331.936,396.21 336.27,396.71 340.5,398C 339.044,398.423 338.544,399.256 339,400.5C 340,399.833 341,399.167 342,398.5C 346.968,400.099 351.801,401.766 356.5,403.5C 350.828,403.133 345.161,402.633 339.5,402C 337.545,401.047 335.878,399.713 334.5,398C 331.964,397.814 329.631,397.314 327.5,396.5 Z"/></g>
<g><path style="opacity:0.047" fill="#44ff6b" d="M 957.5,393.5 C 957.5,394.5 957.5,395.5 957.5,396.5C 951.094,396.284 945.427,398.118 940.5,402C 934.194,402.897 927.861,403.397 921.5,403.5C 923.631,402.686 925.964,402.186 928.5,402C 931.733,398.476 935.233,397.642 939,399.5C 940.473,397.864 942.307,396.864 944.5,396.5C 949.299,395.819 953.633,394.819 957.5,393.5 Z"/></g>
<g><path style="opacity:0.051" fill="#4bff7b" d="M 858.5,390.5 C 857.866,393.643 856.2,396.143 853.5,398C 852.551,398.617 851.718,398.451 851,397.5C 848.152,400.181 846.485,403.514 846,407.5C 844.89,409.037 843.39,409.703 841.5,409.5C 841.244,411.792 841.577,413.959 842.5,416C 839.582,417.15 836.582,417.983 833.5,418.5C 834.897,416.621 836.563,414.954 838.5,413.5C 839.625,410.546 840.625,407.546 841.5,404.5C 843.071,403.691 844.738,403.357 846.5,403.5C 845.627,398.706 847.627,396.373 852.5,396.5C 852.167,392.167 854.167,390.167 858.5,390.5 Z"/></g>
<g><path style="opacity:0.082" fill="#52ff81" d="M 389.5,435.5 C 387.97,434.933 386.47,434.267 385,433.5C 383.763,429.94 383.263,426.273 383.5,422.5C 379.604,422.44 377.438,420.44 377,416.5C 374.022,416.019 372.189,414.353 371.5,411.5C 372.859,410.993 373.859,409.993 374.5,408.5C 375.82,410.27 377.32,410.603 379,409.5C 379.318,411.061 380.151,412.228 381.5,413C 380.833,413.667 380.167,414.333 379.5,415C 380.833,416 380.833,417 379.5,418C 384.846,418.836 387.18,422.003 386.5,427.5C 391.886,427.605 392.553,429.105 388.5,432C 390.727,432.704 391.06,433.871 389.5,435.5 Z"/></g>
<g><path style="opacity:0.11" fill="#47ff70" d="M 440.5,411.5 C 441.812,413.641 443.645,415.308 446,416.5C 447.044,418.715 447.71,421.048 448,423.5C 450.598,424.68 452.264,426.68 453,429.5C 453.333,433.167 453.667,436.833 454,440.5C 455.333,441.167 456.667,441.833 458,442.5C 459.406,446.031 460.24,449.698 460.5,453.5C 459.25,453.423 458.417,452.756 458,451.5C 457.667,448.833 457.333,446.167 457,443.5C 455.667,442.833 454.333,442.167 453,441.5C 450.992,437.903 449.992,434.237 450,430.5C 449,430.167 448,429.833 447,429.5C 447.29,425.456 446.457,421.456 444.5,417.5C 443.033,417.277 441.533,416.944 440,416.5C 439.22,414.613 439.387,412.946 440.5,411.5 Z"/></g>
<g><path style="opacity:0.19" fill="#50ff7a" d="M 911.5,409.5 C 910.164,413 907.664,415.333 904,416.5C 903.562,420.44 901.396,422.44 897.5,422.5C 897.76,426.348 897.094,430.015 895.5,433.5C 894.264,434.246 892.93,434.579 891.5,434.5C 891.5,435.833 891.5,437.167 891.5,438.5C 887.074,438.141 886.407,436.307 889.5,433C 889.167,432.667 888.833,432.333 888.5,432C 890.001,430.748 891.668,429.748 893.5,429C 893.167,428.667 892.833,428.333 892.5,428C 894.113,424.88 896.447,422.713 899.5,421.5C 899.351,420.448 899.517,419.448 900,418.5C 903.105,415.778 905.605,412.611 907.5,409C 909.066,408.235 910.399,408.402 911.5,409.5 Z"/></g>
<g><path style="opacity:0.004" fill="#0ffe1b" d="M 890.5,451.5 C 890.005,453.482 889.505,455.482 889,457.5C 887.989,458.337 886.822,458.67 885.5,458.5C 885.5,498.5 885.5,538.5 885.5,578.5C 884.335,538.002 884.169,497.335 885,456.5C 886.188,455.437 886.688,454.103 886.5,452.5C 887.959,452.567 889.292,452.234 890.5,451.5 Z"/></g>
<g><path style="opacity:0.008" fill="#36ff77" d="M 389.5,439.5 C 391.237,442.008 392.07,445.008 392,448.5C 393.122,450.624 394.622,452.457 396.5,454C 393.724,455.779 394.057,456.779 397.5,457C 396.851,463.266 396.185,469.433 395.5,475.5C 395.666,470.156 395.499,464.823 395,459.5C 393.989,458.663 392.822,458.33 391.5,458.5C 390.109,452.253 389.442,445.919 389.5,439.5 Z"/></g>
<g><path style="opacity:0.287" fill="#57ff84" d="M 833.5,423.5 C 834.315,427.833 832.648,430.166 828.5,430.5C 829.65,437.853 829.15,445.186 827,452.5C 826.692,451.692 826.192,451.025 825.5,450.5C 824.3,451.531 822.966,452.365 821.5,453C 822.833,455.333 822.833,457.667 821.5,460C 822.167,461.333 822.833,462.667 823.5,464C 822.833,468.333 822.167,472.667 821.5,477C 821.833,477.333 822.167,477.667 822.5,478C 820.009,478.626 820.009,479.459 822.5,480.5C 820.118,483.673 817.785,486.84 815.5,490C 818.741,491.473 819.074,493.307 816.5,495.5C 817.511,500.774 816.844,505.774 814.5,510.5C 814.091,496.449 814.591,482.449 816,468.5C 817.085,467.707 818.252,467.04 819.5,466.5C 820.292,458.827 821.125,451.161 822,443.5C 823.11,441.963 824.61,441.297 826.5,441.5C 826.763,435.904 827.93,430.571 830,425.5C 831.113,424.695 832.279,424.028 833.5,423.5 Z"/></g>
<g><path style="opacity:0.02" fill="#2bfe52" d="M 468.5,546.5 C 471.488,553.037 472.822,560.037 472.5,567.5C 470.319,565.236 468.985,562.569 468.5,559.5C 471.619,556.427 470.952,554.593 466.5,554C 467.167,553.667 467.833,553.333 468.5,553C 465.957,550.848 465.957,548.682 468.5,546.5 Z"/></g>
<g><path style="opacity:0.016" fill="#19fe41" d="M 814.5,543.5 C 814.859,545.766 814.192,547.599 812.5,549C 813.051,550.398 813.384,551.732 813.5,553C 810.876,553.576 810.209,554.91 811.5,557C 810.653,560.965 809.653,564.798 808.5,568.5C 808.428,562.455 808.928,556.455 810,550.5C 810.545,547.473 812.045,545.14 814.5,543.5 Z"/></g>
<g><path style="opacity:0.005" fill="#0cfe1c" d="M 472.5,594.5 C 473.216,599.064 473.883,603.731 474.5,608.5C 472.564,604.285 471.897,599.619 472.5,594.5 Z"/></g>
<g><path style="opacity:0.09" fill="#40ff64" d="M 474.5,608.5 C 475.885,609.574 477.051,610.907 478,612.5C 478.912,617.464 479.412,622.464 479.5,627.5C 477.739,622.027 476.239,616.36 475,610.5C 474.346,611.696 473.846,611.696 473.5,610.5C 473.863,609.817 474.196,609.15 474.5,608.5 Z"/></g>
<g><path style="opacity:0.337" fill="#56ff85" d="M 468.5,559.5 C 468.985,562.569 470.319,565.236 472.5,567.5C 472.5,576.5 472.5,585.5 472.5,594.5C 471.897,599.619 472.564,604.285 474.5,608.5C 474.196,609.15 473.863,609.817 473.5,610.5C 473.846,611.696 474.346,611.696 475,610.5C 476.239,616.36 477.739,622.027 479.5,627.5C 481.442,629.391 483.275,631.391 485,633.5C 485.498,636.817 485.665,640.15 485.5,643.5C 490.323,643.327 492.323,645.661 491.5,650.5C 493.484,650.383 495.15,651.05 496.5,652.5C 498.608,656.362 500.941,660.029 503.5,663.5C 502.127,663.657 500.793,663.49 499.5,663C 497.693,659.359 495.026,656.526 491.5,654.5C 490.811,652.556 490.311,650.556 490,648.5C 489.692,649.308 489.192,649.975 488.5,650.5C 487.494,650.062 487.494,649.396 488.5,648.5C 486.219,647.723 484.052,646.723 482,645.5C 480.98,641.598 479.48,637.932 477.5,634.5C 478.485,632.902 478.651,631.235 478,629.5C 475.266,628.638 475.099,627.805 477.5,627C 476.751,625.266 476.251,623.433 476,621.5C 475.667,621.833 475.333,622.167 475,622.5C 473.359,620.045 471.859,617.545 470.5,615C 470.957,614.586 471.291,614.086 471.5,613.5C 469.724,612.685 469.057,611.518 469.5,610C 470.167,609.667 470.833,609.333 471.5,609C 470.794,605.869 470.127,602.702 469.5,599.5C 470.167,599.167 470.833,598.833 471.5,598.5C 470.376,597.086 469.376,595.586 468.5,594C 468.647,591.49 469.313,588.823 470.5,586C 469.932,584.128 469.265,582.295 468.5,580.5C 469.025,579.808 469.692,579.308 470.5,579C 465.977,577.985 465.31,575.819 468.5,572.5C 467.833,572.167 467.167,571.833 466.5,571.5C 467.833,570.5 469.167,569.5 470.5,568.5C 469.038,567.539 467.371,566.039 465.5,564C 466.748,562.6 467.748,561.1 468.5,559.5 Z"/></g>
<g><path style="opacity:0.253" fill="#53ff81" d="M 808.5,586.5 C 808.335,589.518 808.502,592.518 809,595.5C 809.667,596.833 810.333,596.833 811,595.5C 811.167,596 811.333,596.5 811.5,597C 809.69,599.019 809.69,601.352 811.5,604C 811.5,606 811.5,608 811.5,610C 810.137,613.611 808.47,617.111 806.5,620.5C 806.709,621.086 807.043,621.586 807.5,622C 806.484,622.519 805.818,623.353 805.5,624.5C 804.818,628.138 804.318,631.805 804,635.5C 799.466,635.72 797.133,638.386 797,643.5C 796.667,643.167 796.333,642.833 796,642.5C 794.491,645.329 794.325,648.162 795.5,651C 793.965,651.496 792.465,651.33 791,650.5C 789.829,651.34 788.662,652.173 787.5,653C 788.308,653.308 788.975,653.808 789.5,654.5C 788.638,657.822 787.305,660.656 785.5,663C 784.216,663.684 783.049,663.517 782,662.5C 781,663.167 780,663.833 779,664.5C 778.601,664.272 778.435,663.938 778.5,663.5C 778.5,662.5 778.5,661.5 778.5,660.5C 779.508,658.661 781.008,657.328 783,656.5C 783.21,652.624 785.21,650.29 789,649.5C 788.408,645.102 790.241,643.102 794.5,643.5C 793.96,636.95 796.127,631.616 801,627.5C 801.248,622.437 801.915,617.437 803,612.5C 803.687,610.445 804.854,608.779 806.5,607.5C 807.167,600.345 807.833,593.345 808.5,586.5 Z"/></g>
<g><path style="opacity:0.02" fill="#26fe47" d="M 778.5,660.5 C 778.5,661.5 778.5,662.5 778.5,663.5C 775.196,664.714 772.862,666.38 771.5,668.5C 771.351,667.448 771.517,666.448 772,665.5C 774.727,664.406 776.893,662.74 778.5,660.5 Z"/></g>
<g><path style="opacity:0.259" fill="#54ff7f" d="M 885.5,586.5 C 885.686,603.187 885.186,619.854 884,636.5C 883.85,640.136 882.184,642.803 879,644.5C 878.667,649.5 878.333,654.5 878,659.5C 877.088,662.239 875.588,664.572 873.5,666.5C 872.765,671.454 871.432,676.121 869.5,680.5C 864.971,679.862 863.305,681.529 864.5,685.5C 864.081,686.672 863.415,687.672 862.5,688.5C 862.709,689.086 863.043,689.586 863.5,690C 862.207,690.49 860.873,690.657 859.5,690.5C 859.5,691.833 859.5,693.167 859.5,694.5C 859.66,696.199 859.494,697.866 859,699.5C 857.277,701.792 855.444,703.958 853.5,706C 852.922,707.811 852.422,709.645 852,711.5C 848.229,712.371 846.229,714.704 846,718.5C 844.559,719.26 843.059,719.926 841.5,720.5C 840.594,722.386 839.594,724.22 838.5,726C 834.95,726.422 832.95,728.422 832.5,732C 831.207,732.49 829.873,732.657 828.5,732.5C 827.504,732.414 826.671,732.748 826,733.5C 825.546,736.612 823.713,738.278 820.5,738.5C 819.614,739.325 819.281,740.325 819.5,741.5C 819.631,742.376 819.298,743.043 818.5,743.5C 815.548,744.654 812.548,745.654 809.5,746.5C 808.05,747.85 807.383,749.516 807.5,751.5C 805.801,751.62 804.135,751.954 802.5,752.5C 800.269,754.886 797.603,756.719 794.5,758C 791.189,758.057 788.189,758.89 785.5,760.5C 785.498,758.169 786.331,756.169 788,754.5C 789.217,755.386 790.551,756.386 792,757.5C 793.6,753.088 797.267,750.421 803,749.5C 803.778,746.816 805.111,744.483 807,742.5C 808.749,743.299 810.082,742.632 811,740.5C 811.561,741.022 812.228,741.355 813,741.5C 816.537,741.168 817.704,739.502 816.5,736.5C 818.193,735.772 819.693,734.772 821,733.5C 823.129,734.863 823.629,734.529 822.5,732.5C 825.337,731.491 826.67,729.491 826.5,726.5C 828.749,725.769 830.916,724.769 833,723.5C 834.641,725.045 835.807,724.711 836.5,722.5C 834.252,721.676 834.086,720.676 836,719.5C 840.346,720.763 842.513,719.096 842.5,714.5C 843.5,714.5 844.5,714.5 845.5,714.5C 845.113,711.746 844.779,709.246 844.5,707C 847.232,706.602 849.065,705.102 850,702.5C 850.414,702.957 850.914,703.291 851.5,703.5C 852.429,702.311 852.762,700.978 852.5,699.5C 853.822,699.33 854.989,699.663 856,700.5C 856.304,698.559 857.137,696.893 858.5,695.5C 857.833,694.833 857.167,694.167 856.5,693.5C 856.861,690.416 858.194,687.916 860.5,686C 859.833,685.667 859.167,685.333 858.5,685C 861.646,684.89 862.646,683.557 861.5,681C 862.745,677.171 864.745,673.838 867.5,671C 867.167,670.667 866.833,670.333 866.5,670C 868.679,669.558 869.345,668.558 868.5,667C 869.249,665.266 869.749,663.433 870,661.5C 872.073,659.835 874.24,658.335 876.5,657C 875.5,656 874.5,655 873.5,654C 877.242,648.433 878.242,642.099 876.5,635C 877.863,633.055 878.697,630.888 879,628.5C 879.75,627.874 880.584,627.374 881.5,627C 880.318,625.295 879.652,622.961 879.5,620C 880.551,618.615 881.884,617.615 883.5,617C 882.692,616.692 882.025,616.192 881.5,615.5C 882.615,614.402 882.615,613.235 881.5,612C 882.127,609.865 882.627,607.698 883,605.5C 883.333,606.167 883.667,606.833 884,607.5C 884.171,600.321 884.671,593.321 885.5,586.5 Z"/></g>
<g><path style="opacity:0.098" fill="#4dff7c" d="M 408.5,672.5 C 410.136,673.749 411.303,675.416 412,677.5C 412.333,676.5 412.667,675.5 413,674.5C 413.71,675.973 414.876,676.64 416.5,676.5C 416.726,679.249 416.393,681.916 415.5,684.5C 420.34,688.363 422.673,693.363 422.5,699.5C 421.549,698.081 421.216,696.415 421.5,694.5C 419.286,694.709 417.619,693.876 416.5,692C 415.274,688.598 414.607,685.098 414.5,681.5C 412.61,681.703 411.11,681.037 410,679.5C 409.56,677.134 409.06,674.801 408.5,672.5 Z"/></g>
<g><path style="opacity:0.135" fill="#52ff80" d="M 505.5,663.5 C 508.353,664.189 510.019,666.022 510.5,669C 512.167,669.333 513.833,669.667 515.5,670C 516.167,671.667 516.833,673.333 517.5,675C 520.5,675.333 523.5,675.667 526.5,676C 528.004,677.337 529.004,679.004 529.5,681C 534.897,681.227 540.231,681.894 545.5,683C 546.781,684.409 547.781,685.909 548.5,687.5C 545.542,690.468 543.042,690.134 541,686.5C 540.667,686.833 540.333,687.167 540,687.5C 539.506,685.866 539.34,684.199 539.5,682.5C 536.568,682.284 533.902,682.951 531.5,684.5C 529.655,683.062 528.489,683.396 528,685.5C 526.22,684.406 524.386,683.406 522.5,682.5C 521.151,678.596 518.651,677.263 515,678.5C 513.3,675.961 511.8,673.295 510.5,670.5C 509.264,669.754 507.93,669.421 506.5,669.5C 506.675,667.379 506.341,665.379 505.5,663.5 Z"/></g>
<g><path style="opacity:0.122" fill="#36ff5c" d="M 869.5,680.5 C 868.152,681.186 866.985,682.186 866,683.5C 865.699,686.98 864.865,690.313 863.5,693.5C 862.264,694.246 860.93,694.579 859.5,694.5C 859.5,693.167 859.5,691.833 859.5,690.5C 860.873,690.657 862.207,690.49 863.5,690C 863.043,689.586 862.709,689.086 862.5,688.5C 863.415,687.672 864.081,686.672 864.5,685.5C 863.305,681.529 864.971,679.862 869.5,680.5 Z"/></g>
<g><path style="opacity:0.035" fill="#35ff62" d="M 745.5,681.5 C 744.365,683.088 743.031,683.421 741.5,682.5C 740.667,683.5 739.833,684.5 739,685.5C 738.667,685.167 738.333,684.833 738,684.5C 736.649,686.019 735.149,687.352 733.5,688.5C 732.893,688.376 732.56,688.043 732.5,687.5C 733.117,685.771 734.117,684.271 735.5,683C 738.757,681.957 742.09,681.457 745.5,681.5 Z"/></g>
<g><path style="opacity:0.004" fill="#14ff1d" d="M 566.5,687.5 C 569.279,687.279 571.946,687.612 574.5,688.5C 574.44,689.043 574.107,689.376 573.5,689.5C 571.018,688.933 568.684,688.266 566.5,687.5 Z"/></g>
<g><path style="opacity:0.189" fill="#4eff7a" d="M 472.5,746.5 C 469.474,745.826 466.474,744.993 463.5,744C 461.396,743.209 460.063,741.709 459.5,739.5C 457.929,738.691 456.262,738.357 454.5,738.5C 454.597,734.358 452.597,732.024 448.5,731.5C 447.691,729.929 447.357,728.262 447.5,726.5C 445.801,726.66 444.134,726.494 442.5,726C 441.406,724.22 440.406,722.386 439.5,720.5C 435.746,720.246 433.912,718.246 434,714.5C 432.108,713.87 430.441,712.87 429,711.5C 428.44,707.373 426.607,704.04 423.5,701.5C 424.496,701.414 425.329,701.748 426,702.5C 426.308,701.692 426.808,701.025 427.5,700.5C 427.54,702.621 428.04,704.621 429,706.5C 430.324,707.88 431.657,708.214 433,707.5C 435.14,711.103 437.307,714.769 439.5,718.5C 440.192,717.975 440.692,717.308 441,716.5C 442.333,718.5 443.667,720.5 445,722.5C 445.333,722.167 445.667,721.833 446,721.5C 451.727,725.481 455.894,730.647 458.5,737C 463.363,740.087 468.029,743.254 472.5,746.5 Z"/></g>
<g><path style="opacity:0.027" fill="#2ffe4d" d="M 828.5,732.5 C 827.91,733.766 827.41,735.099 827,736.5C 824.26,737.899 821.76,739.566 819.5,741.5C 819.281,740.325 819.614,739.325 820.5,738.5C 823.713,738.278 825.546,736.612 826,733.5C 826.671,732.748 827.504,732.414 828.5,732.5 Z"/></g>
<g><path style="opacity:0.006" fill="#16fe25" d="M 480.5,752.5 C 484.151,752.162 485.817,753.828 485.5,757.5C 483.089,756.483 481.422,754.816 480.5,752.5 Z"/></g>
<g><path style="opacity:0.039" fill="#3eff67" d="M 495.5,760.5 C 500.673,762.261 506.007,763.427 511.5,764C 513.65,765.649 515.65,767.482 517.5,769.5C 519.866,768.016 521.199,768.683 521.5,771.5C 517.16,771.603 513.827,769.937 511.5,766.5C 507.143,765.592 502.81,764.592 498.5,763.5C 497.66,762.265 496.66,761.265 495.5,760.5 Z"/></g>
<g><path style="opacity:0.167" fill="#53ff80" d="M 784.5,760.5 C 783.859,761.482 783.193,762.482 782.5,763.5C 778.19,764.592 773.857,765.592 769.5,766.5C 769.032,768.134 768.032,769.3 766.5,770C 763.207,770.826 759.874,771.326 756.5,771.5C 756.953,770.542 757.619,769.708 758.5,769C 757.167,768.667 755.833,768.333 754.5,768C 757.295,766.964 759.962,765.631 762.5,764C 763.362,761.266 764.195,761.099 765,763.5C 766.512,761.043 767.846,761.043 769,763.5C 770.91,762.794 772.91,761.794 775,760.5C 776.667,763.167 778.333,763.167 780,760.5C 780.333,760.833 780.667,761.167 781,761.5C 781.833,760.5 782.667,759.5 783.5,758.5C 784.298,758.957 784.631,759.624 784.5,760.5 Z"/></g>
<g><path style="opacity:0.171" fill="#52ff7a" d="M 707.5,940.5 C 707.732,944.98 707.065,949.313 705.5,953.5C 702.562,954.489 699.562,955.156 696.5,955.5C 698.355,954.31 700.188,952.977 702,951.5C 703,948.167 704,944.833 705,941.5C 705.671,940.748 706.504,940.414 707.5,940.5 Z"/></g>
</svg>
