<?xml version="1.0" encoding="UTF-8"?>
<!DOCTYPE svg PUBLIC "-//W3C//DTD SVG 1.1//EN" "http://www.w3.org/Graphics/SVG/1.1/DTD/svg11.dtd">
<svg xmlns="http://www.w3.org/2000/svg" version="1.1" width="100px" height="100px" style="shape-rendering:geometricPrecision; text-rendering:geometricPrecision; image-rendering:optimizeQuality; fill-rule:evenodd; clip-rule:evenodd" xmlns:xlink="http://www.w3.org/1999/xlink">
<g><path style="opacity:0.968" fill="#67fe94" d="M 9.5,7.5 C 22.8375,7.33344 36.1708,7.5001 49.5,8C 44.8333,12.6667 40.1667,17.3333 35.5,22C 25.372,21.1247 21.2053,25.6247 23,35.5C 25.8966,40.1549 30.0633,41.6549 35.5,40C 39.8318,37.042 41.6651,32.8753 41,27.5C 46.8013,20.6975 52.9679,14.1975 59.5,8C 69.5473,7.19184 79.5473,7.3585 89.5,8.5C 90.1924,9.02527 90.6924,9.69194 91,10.5C 91.6667,35.8333 91.6667,61.1667 91,86.5C 85.9664,81.8012 81.2998,76.8012 77,71.5C 77.8753,61.372 73.3753,57.2053 63.5,59C 59.9158,60.6638 58.2492,63.4971 58.5,67.5C 58.2492,71.5029 59.9158,74.3362 63.5,76C 66.1667,76.3333 68.8333,76.6667 71.5,77C 76.1667,81.6667 80.8333,86.3333 85.5,91C 60.1667,91.6667 34.8333,91.6667 9.5,91C 9,90.5 8.5,90 8,89.5C 7.33333,62.8333 7.33333,36.1667 8,9.5C 8.71719,8.9558 9.21719,8.28913 9.5,7.5 Z M 63.5,22.5 C 73.6591,21.1581 77.8257,25.4914 76,35.5C 73.042,39.8318 68.8753,41.6651 63.5,41C 56,48.5 48.5,56 41,63.5C 41.0534,74.5463 35.8867,78.3797 25.5,75C 22.1709,70.8631 21.6709,66.3631 24,61.5C 24.9025,60.2986 26.0692,59.4652 27.5,59C 30.1667,58.6667 32.8333,58.3333 35.5,58C 43,50.5 50.5,43 58,35.5C 57.3634,29.9393 59.1968,25.606 63.5,22.5 Z"/></g>
<g><path style="opacity:0.851" fill="#67ff93" d="M 28.5,27.5 C 35.1584,26.3445 37.1584,28.8445 34.5,35C 27.7496,36.4689 25.7496,33.9689 28.5,27.5 Z"/></g>
<g><path style="opacity:0.851" fill="#67ff93" d="M 64.5,27.5 C 71.1584,26.3445 73.1584,28.8445 70.5,35C 63.7496,36.4689 61.7496,33.9689 64.5,27.5 Z"/></g>
<g><path style="opacity:0.851" fill="#67ff93" d="M 28.5,63.5 C 35.1584,62.3445 37.1584,64.8445 34.5,71C 27.7496,72.4689 25.7496,69.9689 28.5,63.5 Z"/></g>
<g><path style="opacity:0.851" fill="#67ff93" d="M 64.5,63.5 C 71.1584,62.3445 73.1584,64.8445 70.5,71C 63.7496,72.4689 61.7496,69.9689 64.5,63.5 Z"/></g>
</svg>
