<?xml version="1.0" encoding="UTF-8"?>
<!DOCTYPE svg PUBLIC "-//W3C//DTD SVG 1.1//EN" "http://www.w3.org/Graphics/SVG/1.1/DTD/svg11.dtd">
<svg xmlns="http://www.w3.org/2000/svg" version="1.1" width="100px" height="100px" style="shape-rendering:geometricPrecision; text-rendering:geometricPrecision; image-rendering:optimizeQuality; fill-rule:evenodd; clip-rule:evenodd" xmlns:xlink="http://www.w3.org/1999/xlink">
<g><path style="opacity:0.959" fill="#67fe94" d="M 41.5,3.5 C 46.8333,3.5 52.1667,3.5 57.5,3.5C 57.9422,7.1545 58.2756,10.8212 58.5,14.5C 61.462,15.0609 64.2953,16.0609 67,17.5C 70.3232,15.5159 73.6565,13.5159 77,11.5C 80,14.5 83,17.5 86,20.5C 86.6667,21.8333 86.6667,23.1667 86,24.5C 84.3029,26.699 82.8029,29.0324 81.5,31.5C 82.3917,34.2837 83.5584,36.9504 85,39.5C 88.4002,40.5396 91.9002,41.2062 95.5,41.5C 95.5,46.8333 95.5,52.1667 95.5,57.5C 91.8455,57.9422 88.1788,58.2756 84.5,58.5C 83.9391,61.462 82.9391,64.2953 81.5,67C 83.9118,70.3537 85.7452,73.8537 87,77.5C 84.1667,80.3333 81.3333,83.1667 78.5,86C 77.1667,86.6667 75.8333,86.6667 74.5,86C 72.2519,84.0863 69.7519,82.5863 67,81.5C 64.4398,82.53 61.9398,83.6966 59.5,85C 58.2607,88.3642 57.5941,91.8642 57.5,95.5C 52.1667,95.5 46.8333,95.5 41.5,95.5C 41.1103,92.1606 40.6103,88.8273 40,85.5C 37.1176,83.2979 33.9509,82.1312 30.5,82C 28.5,83.3333 26.5,84.6667 24.5,86C 23.1667,86.6667 21.8333,86.6667 20.5,86C 17.3172,82.9845 14.3172,79.8178 11.5,76.5C 13.7132,73.4565 15.7132,70.2899 17.5,67C 16.47,64.4398 15.3034,61.9398 14,59.5C 10.6358,58.2607 7.13582,57.5941 3.5,57.5C 3.5,52.1667 3.5,46.8333 3.5,41.5C 6.83939,41.1103 10.1727,40.6103 13.5,40C 15.7021,37.1176 16.8688,33.9509 17,30.5C 15.6667,28.5 14.3333,26.5 13,24.5C 12.3333,22.8333 12.3333,21.1667 13,19.5C 15.7026,16.462 18.7026,13.7954 22,11.5C 25.3435,13.5159 28.6768,15.5159 32,17.5C 34.5602,16.47 37.0602,15.3034 39.5,14C 40.5396,10.5998 41.2062,7.09983 41.5,3.5 Z M 43.5,28.5 C 62.981,27.1471 71.8144,36.1471 70,55.5C 63.7123,69.8251 53.2123,73.9918 38.5,68C 28.2424,60.2712 25.7424,50.4379 31,38.5C 34.1908,33.8366 38.3575,30.5032 43.5,28.5 Z"/></g>
<g><path style="opacity:0.94" fill="#67ff93" d="M 44.5,39.5 C 56.3244,37.8236 61.1577,42.8236 59,54.5C 55.3449,59.2745 50.5116,60.7745 44.5,59C 39.7255,55.3449 38.2255,50.5116 40,44.5C 41.3657,42.6383 42.8657,40.9717 44.5,39.5 Z"/></g>
</svg>
